<?xml version="1.0"?>
<svg xmlns="http://www.w3.org/2000/svg" version="1" viewBox="0 0 24 24" enable-background="new 0 0 24 24">
    <path d="M 12 2 C 6.5 2 2 6.5 2 12 C 2 17.5 6.5 22 12 22 C 17.5 22 22 17.5 22 12 C 22 6.5 17.5 2 12 2 z M 18 6 L 14.09375 14.09375 L 6 18 L 9.90625 9.90625 L 18 6 z M 12 10.90625 C 11.392487 10.90625 10.90625 11.392487 10.90625 12 C 10.90625 12.607513 11.392487 13.09375 12 13.09375 C 12.607513 13.09375 13.09375 12.607513 13.09375 12 C 13.09375 11.392487 12.607513 10.90625 12 10.90625 z"/>
</svg>
